<svg xmlns="http://www.w3.org/2000/svg" xmlns:xlink="http://www.w3.org/1999/xlink" preserveAspectRatio="xMidYMid meet" version="1.0" viewBox="0.0 0.0 330.0 300.0" zoomAndPan="magnify" style="fill: rgb(255, 255, 255);" height="300px" width="330px"><g id="__id3_sekgonegmi"><path d="M165,247.1c-16.3,0-29.5-13.2-29.5-29.5c0-16.3,13.2-29.5,29.5-29.5c16.3,0,29.5,13.2,29.5,29.5 C194.5,233.9,181.3,247.1,165,247.1z M165,199.7c-9.9,0-17.9,8-17.9,17.9c0,9.9,8,17.9,17.9,17.9c9.9,0,17.9-8,17.9-17.9 C182.9,207.7,174.9,199.7,165,199.7z" style="fill: inherit;"></path><path d="M216.1,300H113.9c-3.2,0-5.8-2.6-5.8-5.8v-6.6c0-26.4,17.9-49.1,43.6-55.3c1.5-0.4,3-0.1,4.3,0.6c5.7,3.4,12.3,3.4,18.1,0 c1.3-0.8,2.8-1,4.3-0.6c25.7,6.2,43.6,28.9,43.6,55.3v6.6C221.9,297.4,219.3,300,216.1,300z M119.7,288.4h90.6v-0.8 c0-20.3-13.3-37.8-32.6-43.5c-8,3.9-17.4,3.9-25.4,0c-19.3,5.6-32.6,23.2-32.6,43.5V288.4z" style="fill: inherit;"></path><path d="M138.5,300c-3.2,0-5.8-2.6-5.8-5.8v-17.8c0-3.2,2.6-5.8,5.8-5.8s5.8,2.6,5.8,5.8v17.8C144.3,297.4,141.7,300,138.5,300z" style="fill: inherit;"></path><path d="M191.4,300c-3.2,0-5.8-2.6-5.8-5.8v-17.8c0-3.2,2.6-5.8,5.8-5.8s5.8,2.6,5.8,5.8v17.8C197.2,297.4,194.6,300,191.4,300z" style="fill: inherit;"></path><path d="M263.1,247.1c-16.3,0-29.5-13.2-29.5-29.5c0-16.3,13.2-29.5,29.5-29.5c16.3,0,29.5,13.2,29.5,29.5 C292.6,233.9,279.4,247.1,263.1,247.1z M263.1,199.7c-9.9,0-17.9,8-17.9,17.9c0,9.9,8,17.9,17.9,17.9c9.9,0,17.9-8,17.9-17.9 C281,207.7,273,199.7,263.1,199.7z" style="fill: inherit;"></path><path d="M314.2,300h-77.6c-3.2,0-5.8-2.6-5.8-5.8c0-3.2,2.6-5.8,5.8-5.8h71.8v-0.8c0-20.3-13.3-37.8-32.6-43.5 c-8,3.9-17.4,3.9-25.4,0c-7.8,2.3-14.9,6.6-20.5,12.6c-2.2,2.3-5.9,2.5-8.2,0.3c-2.3-2.2-2.5-5.9-0.3-8.2 c7.7-8.2,17.4-13.9,28.3-16.5c1.5-0.4,3-0.1,4.3,0.6c5.7,3.4,12.3,3.4,18.1,0c1.3-0.8,2.8-1,4.3-0.6c25.7,6.2,43.6,28.9,43.6,55.3 v6.6C320,297.4,317.4,300,314.2,300z" style="fill: inherit;"></path><path d="M236.6,300c-3.2,0-5.8-2.6-5.8-5.8v-17.8c0-3.2,2.6-5.8,5.8-5.8s5.8,2.6,5.8,5.8v17.8C242.4,297.4,239.9,300,236.6,300z" style="fill: inherit;"></path><path d="M289.6,300c-3.2,0-5.8-2.6-5.8-5.8v-17.8c0-3.2,2.6-5.8,5.8-5.8s5.8,2.6,5.8,5.8v17.8C295.4,297.4,292.8,300,289.6,300z" style="fill: inherit;"></path><path d="M66.9,247.1c-16.3,0-29.5-13.2-29.5-29.5c0-16.3,13.2-29.5,29.5-29.5c16.3,0,29.5,13.2,29.5,29.5 C96.4,233.9,83.1,247.1,66.9,247.1z M66.9,199.7c-9.9,0-17.9,8-17.9,17.9c0,9.9,8,17.9,17.9,17.9c9.9,0,17.9-8,17.9-17.9 C84.8,207.7,76.7,199.7,66.9,199.7z" style="fill: inherit;"></path><path d="M93.3,300H15.7c-3.2,0-5.8-2.6-5.8-5.8v-6.6c0-26.4,17.9-49.1,43.6-55.3c1.5-0.4,3-0.1,4.3,0.6c5.7,3.4,12.3,3.4,18.1,0 c1.3-0.8,2.8-1,4.3-0.6c10.9,2.6,20.7,8.3,28.3,16.5c2.2,2.3,2.1,6-0.3,8.2c-2.3,2.2-6,2.1-8.2-0.3c-5.6-6-12.6-10.3-20.5-12.6 c-8,3.9-17.4,3.9-25.4,0c-19.3,5.6-32.6,23.2-32.6,43.5v0.8h71.8c3.2,0,5.8,2.6,5.8,5.8C99.1,297.4,96.5,300,93.3,300z" style="fill: inherit;"></path><path d="M93.3,300c-3.2,0-5.8-2.6-5.8-5.8v-17.8c0-3.2,2.6-5.8,5.8-5.8c3.2,0,5.8,2.6,5.8,5.8v17.8C99.1,297.4,96.5,300,93.3,300z" style="fill: inherit;"></path><path d="M40.4,300c-3.2,0-5.8-2.6-5.8-5.8v-17.8c0-3.2,2.6-5.8,5.8-5.8c3.2,0,5.8,2.6,5.8,5.8v17.8C46.2,297.4,43.6,300,40.4,300z" style="fill: inherit;"></path><path d="M165,68c-18.7,0-34-15.2-34-34s15.2-34,34-34c18.7,0,34,15.2,34,34S183.7,68,165,68z M165,11.6c-12.3,0-22.4,10-22.4,22.4 s10,22.4,22.4,22.4s22.4-10,22.4-22.4S177.3,11.6,165,11.6z" style="fill: inherit;"></path><path d="M133.5,130.8c-3.2,0-5.8-2.6-5.8-5.8v-21.1c0-3.2,2.6-5.8,5.8-5.8s5.8,2.6,5.8,5.8V125 C139.3,128.2,136.8,130.8,133.5,130.8z" style="fill: inherit;"></path><path d="M196.4,130.8c-3.2,0-5.8-2.6-5.8-5.8v-21.1c0-3.2,2.6-5.8,5.8-5.8s5.8,2.6,5.8,5.8V125 C202.2,128.2,199.6,130.8,196.4,130.8z" style="fill: inherit;"></path><path d="M225.7,130.8H104.3c-3.2,0-5.8-2.6-5.8-5.8v-7.9c0-23.4,12-44.7,32.1-56.8c2.7-1.6,6.3-0.8,8,2c1.7,2.7,0.8,6.3-2,8 c-16.6,10-26.5,27.6-26.5,46.9v2.1h109.8v-2.1c0-19.4-9.9-36.9-26.5-46.9c-2.7-1.7-3.6-5.2-2-8c1.7-2.7,5.2-3.6,8-2 c20.1,12.2,32.1,33.4,32.1,56.9v7.9C231.5,128.2,228.9,130.8,225.7,130.8z" style="fill: inherit;"></path><path d="M66.9,178.4c-3.2,0-5.8-2.6-5.8-5.8V40c0-9.6,7.8-17.4,17.4-17.4h30c3.2,0,5.8,2.6,5.8,5.8c0,3.2-2.6,5.8-5.8,5.8h-30 c-3.2,0-5.8,2.6-5.8,5.8v132.6C72.6,175.8,70.1,178.4,66.9,178.4z" style="fill: inherit;"></path><path d="M165,178.4c-3.2,0-5.8-2.6-5.8-5.8v-23.8c0-3.2,2.6-5.8,5.8-5.8s5.8,2.6,5.8,5.8v23.8C170.8,175.8,168.2,178.4,165,178.4z" style="fill: inherit;"></path><path d="M263.1,178.4c-3.2,0-5.8-2.6-5.8-5.8V40c0-3.2-2.6-5.8-5.8-5.8h-30c-3.2,0-5.8-2.6-5.8-5.8c0-3.2,2.6-5.8,5.8-5.8h30 c9.6,0,17.4,7.8,17.4,17.4v132.6C268.9,175.8,266.3,178.4,263.1,178.4z" style="fill: inherit;"></path><path d="M324.2,300H5.8c-3.2,0-5.8-2.6-5.8-5.8c0-3.2,2.6-5.8,5.8-5.8h318.4c3.2,0,5.8,2.6,5.8,5.8C330,297.4,327.4,300,324.2,300z" style="fill: inherit;"></path></g></svg>