<svg width="180" height="180" fill="none" xmlns="http://www.w3.org/2000/svg"><path d="M150.729 94.933v-65.88H29v121.729h121.729v-35.516c-.271 0 0-20.333 0-20.333z" fill="#006FCF"/><path d="M135.818 88.156h9.218V66.738h-10.032v2.983l-1.897-2.983h-8.676v3.796l-1.627-3.796h-15.995c-.542 0-1.085.272-1.627.272s-.813.27-1.355.542c-.543.27-.814.27-1.356.542v-1.356H56.653l-1.355 3.525-1.356-3.525H43.098v3.796l-1.627-3.796h-8.675L29 75.956v12.2h6.236l1.084-2.982h2.169l1.084 2.982H87.29v-2.71l1.898 2.71h13.284V86.53c.271.272.813.272 1.085.543.271.27.813.27 1.084.542.542.271 1.084.271 1.627.271h9.76l1.084-2.982h2.169l1.084 2.982h13.285v-2.711l2.169 2.982zm14.911 27.111V95.205H76.173l-1.897 2.711-1.898-2.71h-21.69v21.417h21.69l1.898-2.711 1.897 2.711H89.73v-4.609h-.542c1.897 0 3.524-.271 4.88-.813v5.693h9.76v-2.711l1.897 2.711h40.396c1.627-.542 3.253-.813 4.609-1.627z" fill="#fff"/><path d="M146.12 110.116h-7.32v2.983h7.049c2.982 0 4.88-1.898 4.88-4.609 0-2.711-1.627-4.067-4.338-4.067h-3.253c-.814 0-1.356-.542-1.356-1.355 0-.814.542-1.356 1.356-1.356h6.235l1.356-2.982h-7.32c-2.982 0-4.88 1.898-4.88 4.338 0 2.711 1.627 4.066 4.338 4.066h3.253c.813 0 1.356.542 1.356 1.356.271 1.084-.272 1.626-1.356 1.626zm-13.284 0h-7.32v2.983h7.048c2.983 0 4.88-1.898 4.88-4.609 0-2.711-1.626-4.067-4.337-4.067h-3.254c-.813 0-1.355-.542-1.355-1.355 0-.814.542-1.356 1.355-1.356h6.236l1.355-2.982h-7.32c-2.982 0-4.88 1.898-4.88 4.338 0 2.711 1.627 4.066 4.338 4.066h3.254c.813 0 1.355.542 1.355 1.356.271 1.084-.542 1.626-1.355 1.626zm-9.489-8.675v-2.982H111.96v14.369h11.387v-2.983h-8.134v-2.982h7.863v-2.982h-7.863v-2.711h8.134v.271zm-18.436 0c1.356 0 1.898.813 1.898 1.627 0 .813-.542 1.626-1.898 1.626h-4.067v-3.524l4.067.271zm-4.067 6.235h1.627l4.338 5.152h4.067l-4.88-5.423c2.44-.542 3.795-2.169 3.795-4.337 0-2.712-1.898-4.61-4.88-4.61H97.32v14.37h3.253l.271-5.152zm-8.675-4.337c0 1.084-.542 1.897-1.898 1.897h-4.338v-3.795H90c1.356 0 2.169.813 2.169 1.898zm-9.489-4.88v14.369h3.253v-4.88h4.338c2.982 0 5.151-1.898 5.151-4.88 0-2.712-1.898-4.88-4.88-4.88l-7.862.27zm-4.88 14.369h4.067l-5.694-7.32 5.694-7.05H77.8l-3.524 4.61-3.525-4.61h-4.067l5.694 7.05-5.694 7.048h4.067l3.525-4.608 3.524 4.88zm-12.2-11.387v-2.982H54.213v14.369H65.6v-2.983h-8.133v-2.982h7.862v-2.982h-7.862v-2.711H65.6v.271zm65.88-25.485l5.693 8.676h4.067V70.263h-3.253v9.489l-.814-1.356-5.151-8.133h-4.338v14.369h3.254v-9.76l.542 1.084zm-14.098-.27l1.085-2.983 1.084 2.982 1.356 3.254h-4.88l1.355-3.254zm5.694 8.946h3.524l-6.236-14.369h-4.337l-6.236 14.369h3.525l1.355-2.982h7.049l1.356 2.982zm-15.183 0l1.356-2.982h-.813c-2.44 0-3.796-1.627-3.796-4.067v-.271c0-2.44 1.356-4.067 3.796-4.067h3.524v-2.982h-3.796c-4.337 0-6.777 2.982-6.777 7.049v.271c0 4.338 2.44 7.049 6.506 7.049zm-12.2 0h3.254V70.534h-3.254v14.098zm-7.049-11.387c1.356 0 1.898.814 1.898 1.627 0 .813-.542 1.627-1.898 1.627h-4.066v-3.525l4.066.271zm-4.066 6.236h1.626l4.338 5.151h4.067l-4.88-5.422c2.44-.542 3.795-2.17 3.795-4.338 0-2.711-1.897-4.609-4.88-4.609h-7.59v14.369h3.253l.27-5.151zm-5.965-6.236v-2.982H67.227v14.369h11.386V81.65H70.48v-2.983h7.862v-2.982H70.48v-2.71h8.133v.27zm-24.67 11.387h2.981l4.067-11.658v11.658h3.253V70.263h-5.422l-3.253 9.76-3.253-9.76h-5.423v14.369h3.254V72.974l3.795 11.658zM36.32 75.685l1.084-2.982 1.085 2.982 1.355 3.254h-4.88l1.356-3.254zm5.693 8.947h3.525l-6.236-14.369h-4.066L29 84.632h3.524l1.356-2.982h7.049l1.084 2.982z" fill="#006FCF"/></svg>