<svg width="180" height="180" fill="none" xmlns="http://www.w3.org/2000/svg"><g clip-path="url(#clip0)"><path d="M160.317 145.987v.298h.275a.287.287 0 0 0 .15-.037.13.13 0 0 0 .055-.113.125.125 0 0 0-.055-.11.26.26 0 0 0-.15-.038h-.275zm.278-.208c.141 0 .251.032.33.095a.318.318 0 0 1 .115.261.3.3 0 0 1-.092.228.45.45 0 0 1-.264.11l.365.42h-.284l-.338-.417h-.11v.417h-.238v-1.114h.516zm-.073 1.499a.944.944 0 0 0 .857-.573.958.958 0 0 0 0-.729.962.962 0 0 0-.2-.299.913.913 0 0 0-.657-.269.952.952 0 0 0-.367.07.905.905 0 0 0-.498.498.9.9 0 0 0-.072.364c0 .131.023.252.072.365a.871.871 0 0 0 .197.298.938.938 0 0 0 .301.2.92.92 0 0 0 .367.075zm0-2.139a1.2 1.2 0 0 1 .478.096 1.195 1.195 0 0 1 .648.639c.064.145.096.301.096.466 0 .165-.032.322-.096.466-.063.145-.15.272-.26.382-.113.107-.24.194-.388.258a1.2 1.2 0 0 1-.478.096 1.262 1.262 0 0 1-.874-.354 1.227 1.227 0 0 1-.26-.382 1.14 1.14 0 0 1-.096-.466c0-.165.032-.321.096-.466.063-.147.15-.275.26-.382.11-.11.24-.197.391-.257.15-.064.31-.096.483-.096zm-112.77-4.292c0-2.125 1.392-3.87 3.667-3.87 2.174 0 3.641 1.67 3.641 3.87 0 2.199-1.467 3.87-3.641 3.87-2.275 0-3.667-1.746-3.667-3.87zm9.786 0v-6.044H54.91v1.468c-.834-1.089-2.099-1.772-3.818-1.772-3.39 0-6.047 2.657-6.047 6.348 0 3.693 2.657 6.347 6.047 6.347 1.72 0 2.984-.683 3.818-1.771v1.467h2.628v-6.043zm88.813 0c0-2.125 1.392-3.87 3.667-3.87 2.177 0 3.642 1.67 3.642 3.87 0 2.199-1.465 3.87-3.642 3.87-2.275 0-3.667-1.746-3.667-3.87zm9.789 0v-10.898h-2.631v6.322c-.834-1.089-2.098-1.772-3.818-1.772-3.389 0-6.046 2.657-6.046 6.348 0 3.693 2.657 6.347 6.046 6.347 1.72 0 2.984-.683 3.818-1.771v1.467h2.631v-6.043zm-65.979-3.995c1.693 0 2.782 1.063 3.06 2.932h-6.273c.281-1.745 1.34-2.932 3.213-2.932zm.052-2.353c-3.542 0-6.02 2.579-6.02 6.348 0 3.843 2.579 6.347 6.197 6.347 1.82 0 3.488-.454 4.955-1.693l-1.288-1.948c-1.013.808-2.304 1.265-3.517 1.265-1.693 0-3.236-.785-3.615-2.961h8.976c.026-.327.052-.657.052-1.01-.026-3.769-2.353-6.348-5.74-6.348zm31.735 6.348c0-2.125 1.392-3.87 3.667-3.87 2.174 0 3.641 1.67 3.641 3.87 0 2.199-1.467 3.87-3.641 3.87-2.275 0-3.667-1.746-3.667-3.87zm9.786 0v-6.044h-2.628v1.468c-.837-1.089-2.099-1.772-3.818-1.772-3.389 0-6.046 2.657-6.046 6.348 0 3.693 2.657 6.347 6.046 6.347 1.719 0 2.981-.683 3.818-1.771v1.467h2.628v-6.043zm-24.629 0c0 3.667 2.553 6.347 6.449 6.347 1.821 0 3.033-.405 4.348-1.441l-1.262-2.125c-.987.709-2.024 1.089-3.164 1.089-2.099-.027-3.641-1.543-3.641-3.87s1.542-3.844 3.641-3.87c1.14 0 2.177.379 3.164 1.088l1.262-2.124c-1.315-1.037-2.527-1.442-4.348-1.442-3.896 0-6.449 2.68-6.449 6.348zm33.886-6.348c-1.517 0-2.504.709-3.187 1.772v-1.468h-2.605v12.087h2.631v-6.776c0-2 .859-3.111 2.579-3.111.532 0 1.088.075 1.644.304l.81-2.478c-.582-.229-1.34-.33-1.872-.33zm-70.454 1.265c-1.265-.834-3.008-1.265-4.93-1.265-3.062 0-5.033 1.468-5.033 3.87 0 1.971 1.468 3.187 4.171 3.566l1.242.177c1.441.202 2.121.581 2.121 1.264 0 .935-.96 1.468-2.755 1.468-1.82 0-3.135-.582-4.02-1.265l-1.24 2.046c1.442 1.063 3.263 1.569 5.234 1.569 3.49 0 5.514-1.644 5.514-3.945 0-2.124-1.592-3.236-4.223-3.615l-1.24-.18c-1.137-.15-2.048-.376-2.048-1.186 0-.886.86-1.416 2.3-1.416 1.544 0 3.037.582 3.77 1.037l1.137-2.125zm33.911-1.265c-1.517 0-2.504.709-3.184 1.772v-1.468h-2.605v12.087h2.628v-6.776c0-2 .86-3.111 2.579-3.111a4.25 4.25 0 0 1 1.644.304l.811-2.478c-.582-.229-1.34-.33-1.873-.33zm-22.429.304h-4.298v-3.667h-2.657v3.667h-2.452v2.402h2.452v5.514c0 2.805 1.088 4.475 4.197 4.475 1.14 0 2.454-.353 3.288-.935l-.759-2.252c-.784.455-1.644.683-2.327.683-1.314 0-1.742-.81-1.742-2.023v-5.462h4.298v-2.402zM42.721 146.89v-7.586c0-2.857-1.82-4.779-4.755-4.805-1.543-.026-3.135.455-4.25 2.151-.833-1.34-2.147-2.151-3.994-2.151-1.29 0-2.553.379-3.54 1.795v-1.491h-2.63v12.087h2.654v-6.7c0-2.099 1.163-3.213 2.96-3.213 1.746 0 2.629 1.137 2.629 3.187v6.726h2.657v-6.7c0-2.099 1.212-3.213 2.958-3.213 1.794 0 2.654 1.137 2.654 3.187v6.726h2.657z" fill="#fff"/><path d="M161.937 106.692v-1.766h-.461l-.532 1.213-.53-1.213h-.463v1.766h.327v-1.331l.498 1.149h.339l.498-1.152v1.334h.324zm-2.921 0v-1.465h.591v-.298h-1.505v.298h.59v1.465h.324z" fill="#F79410"/><path d="M109.604 114.288H69.772V42.702h39.832v71.586z" fill="#FF5F00"/><path d="M72.324 78.489c0-14.522 6.8-27.457 17.387-35.793a45.327 45.327 0 0 0-28.134-9.734c-25.141 0-45.52 20.382-45.52 45.526 0 25.145 20.379 45.527 45.52 45.527a45.325 45.325 0 0 0 28.134-9.734c-10.588-8.336-17.387-21.271-17.387-35.793z" fill="#EB001B"/><path d="M163.326 78.489c0 25.144-20.379 45.526-45.521 45.526a45.34 45.34 0 0 1-28.137-9.734c10.591-8.336 17.39-21.271 17.39-35.793 0-14.521-6.799-27.456-17.39-35.792a45.341 45.341 0 0 1 28.137-9.734c25.142 0 45.521 20.382 45.521 45.526z" fill="#F79E1B"/></g><defs><clipPath id="clip0"><path fill="#fff" transform="translate(16 33)" d="M0 0H147.314V114.596H0z"/></clipPath></defs></svg>