<svg width="180" height="180" fill="none" xmlns="http://www.w3.org/2000/svg"><path d="M78.032 118.583H63.344l9.18-56.414h14.689l-9.181 56.414zM50.988 62.169L36.985 100.97l-1.657-8.356.002.003-4.942-25.37s-.598-5.08-6.968-5.08H.273L0 63.125s7.079 1.473 15.364 6.448l12.76 49.013h15.304l23.367-56.416H50.988zm115.526 56.414H180l-11.759-56.416h-11.806c-5.453 0-6.781 4.204-6.781 4.204l-21.905 52.212h15.311l3.062-8.38h18.671l1.721 8.38zm-16.162-19.956l7.717-21.111 4.341 21.111h-12.058zm-21.455-22.892l2.096-12.115s-6.467-2.46-13.21-2.46c-7.289 0-24.597 3.186-24.597 18.677 0 14.574 20.315 14.755 20.315 22.411 0 7.655-18.222 6.283-24.236 1.456l-2.183 12.667s6.558 3.185 16.578 3.185c10.023 0 25.144-5.189 25.144-19.314 0-14.668-20.498-16.034-20.498-22.411.002-6.379 14.306-5.56 20.591-2.096z" fill="#2566AF"/><path d="M35.33 92.616l-4.942-25.37s-.598-5.08-6.968-5.08H.273L0 63.12s11.126 2.306 21.798 10.945c10.204 8.258 13.532 18.55 13.532 18.55z" fill="#E6A540"/></svg>